# xmcd
#
# Track frame offsets:
#	150
#	13777
#	28042
#	42127
#	56817
#	70757
#	82582
#	93905
#	106152
#	119150
#	131945
#	145160
#	158137
#	170730
#	183677
#	198560
#	213440
#	225735
#	238032
#	251900
#	266057
#	279522
#	292732
#	306512
#	320260
#	333942
#
# Disc length: 4613 seconds
#
# Revision: 0
# Processed by: cddbd v1.5.2PL0 Copyright (c) Steve Scherf et al.
# Submitted via: EasyCDDAExtractor 2010.3.0.0
#
DISCID=8512031a
DTITLE=Autry Gene - That Silver Haired Daddy Of Mine Disc 3
DYEAR=1900
DGENRE=
TTITLE0=High Powered Mama
TTITLE1=Yodeling Hobo (Alt.)
TTITLE2=Mean Mama Blues
TTITLE3=Blue Yodel No. 8
TTITLE4=Pistol Packin' Papa
TTITLE5=Dad In The Hills
TTITLE6=Pictures Of My Mother (Alt.)
TTITLE7=Any Old Time
TTITLE8=Money Ain't No Use Anyway
TTITLE9=Blue Days (Alt.)
TTITLE10=Gangster's Warning
TTITLE11=Pictures Of My Mother (Alt.#2)
TTITLE12=That's How I Got My Start
TTITLE13=True Blue Bill
TTITLE14=Do Right Daddy Blues
TTITLE15=Do Right Daddy Blues (Alt.)
TTITLE16=Money Ain't No Use Anyway (Alt.)
TTITLE17=Money Ain't No Use Anyway (Alt.#2)
TTITLE18=That's How I Got My Start (Alt.)
TTITLE19=That's How I Got My Start (Alt.#2)
TTITLE20=Bear Cat Papa Blues
TTITLE21=Bear Cat Papa Blues (Alt)
TTITLE22=True Blue Bill
TTITLE23=Gangster's Warning (Alt.)
TTITLE24=Gangster's Warning (Alt.#2)
TTITLE25=I'll Always Be A Rambler
EXTD=
EXTT0=
EXTT1=
EXTT2=
EXTT3=
EXTT4=
EXTT5=
EXTT6=
EXTT7=
EXTT8=
EXTT9=
EXTT10=
EXTT11=
EXTT12=
EXTT13=
EXTT14=
EXTT15=
EXTT16=
EXTT17=
EXTT18=
EXTT19=
EXTT20=
EXTT21=
EXTT22=
EXTT23=
EXTT24=
EXTT25=
PLAYORDER=
